<svg fill="#000000" height="200px" width="200px" version="1.1" id="Capa_1" xmlns="http://www.w3.org/2000/svg" xmlns:xlink="http://www.w3.org/1999/xlink" viewBox="-38.5 -38.5 461.97 461.97" xml:space="preserve" stroke="#000000" stroke-width="3.849700000000001"><g id="SVGRepo_bgCarrier" stroke-width="0"><rect x="-38.5" y="-38.5" width="461.97" height="461.97" rx="64.6758" fill="#ffffff" strokewidth="0"></rect></g><g id="SVGRepo_tracerCarrier" stroke-linecap="round" stroke-linejoin="round"></g><g id="SVGRepo_iconCarrier"> <g> <g id="Upload"> <path d="M372.939,264.641c-6.641,0-12.03,5.39-12.03,12.03v84.212H24.061v-84.212c0-6.641-5.39-12.03-12.03-12.03 S0,270.031,0,276.671v96.242c0,6.641,5.39,12.03,12.03,12.03h360.909c6.641,0,12.03-5.39,12.03-12.03v-96.242 C384.97,270.019,379.58,264.641,372.939,264.641z"></path> <path d="M117.067,103.507l63.46-62.558v235.71c0,6.641,5.438,12.03,12.151,12.03c6.713,0,12.151-5.39,12.151-12.03V40.95 l63.46,62.558c4.74,4.704,12.439,4.704,17.179,0c4.74-4.704,4.752-12.319,0-17.011l-84.2-82.997 c-4.692-4.656-12.584-4.608-17.191,0L99.888,86.496c-4.752,4.704-4.74,12.319,0,17.011 C104.628,108.211,112.327,108.211,117.067,103.507z"></path> </g> <g> </g> <g> </g> <g> </g> <g> </g> <g> </g> <g> </g> </g> </g></svg>
