  <svg
    xmlns="http://www.w3.org/2000/svg"
    width="32"
    height="32"
    viewBox="0 0 32 32"
    fill="none"
  >
    <g clipPath="url(#clip0_112_10969)">
      <path
        d="M16.137 15.414c-4.21 2.952-5.905 8.304-3.264 11.561C16.137 31 22.5 30.5 26 28c4.5-3.5 3.781-8.774 2.118-11.715-2.697-2.495-7.771-3.823-11.981-.871z"
        fill="#FFD7C2"
      />
      <path
        fill="#FFD7C2"
        d="M15.554 24.622L12.5 20.266l-2.904 2.036 3.054 4.356zM29.483 10.072c-.707 4.026-.351 6.961-.268 9.934l-4.417-2.28c.16-1.394.064-5.087.369-6.824s.827-2.716 2.171-3.117c.815-.243 2.47.434 2.145 2.287z"
      />
      <path
        d="M23.143 17.192a2.327 2.327 0 001.669-3.31L20.5 5.059a2.237 2.237 0 00-4.038 1.927l4.148 8.9a2.327 2.327 0 002.532 1.306z"
        fill="#FFD7C2"
      />
      <rect
        width="15.96"
        height="4.433"
        rx="2.217"
        transform="scale(-1 1) rotate(-58.764 4.462 27.823)"
        fill="#FFD7C2"
      />
      <rect
        width="14.187"
        height="4.433"
        rx="2.217"
        transform="scale(-1 1) rotate(-52.501 10.026 27.111)"
        fill="#FFD7C2"
      />
      <rect
        width="11.527"
        height="4.433"
        rx="2.217"
        transform="scale(-1 1) rotate(-48.485 16.167 26.506)"
        fill="#FFD7C2"
      />
      <path
        d="M17.26 6.58a.4.4 0 00-.532-.193l-.078.037a.4.4 0 00-.193.532l3.283 7.003a.2.2 0 00.266.097l.44-.207a.2.2 0 00.096-.266L17.26 6.58zM25.979 11.468a.4.4 0 00-.382-.418l-.086-.003a.4.4 0 00-.418.381l-.154 3.397a.2.2 0 00.191.208l.486.023a.2.2 0 00.209-.191l.154-3.397zM7.408 11.126a.4.4 0 00-.56-.072l-.07.053a.4.4 0 00-.071.56l5.27 6.823a.2.2 0 00.28.036l.386-.297a.2.2 0 00.036-.28l-5.27-6.823zM11.373 7.178a.4.4 0 00-.55-.133l-.074.045a.4.4 0 00-.133.55l5.223 8.573a.2.2 0 00.275.067l.416-.253a.2.2 0 00.067-.275l-5.224-8.574z"
        fill="#F1B99B"
      />
      <path
        fillRule="evenodd"
        clipRule="evenodd"
        d="M20.5 3a.5.5 0 01.5-.5c1.287 0 3.573 1.125 3.997 4.945a.5.5 0 11-.994.11C23.627 4.175 21.713 3.5 21 3.5a.5.5 0 01-.5-.5z"
        fill="#296DFF"
      />
      <path
        fillRule="evenodd"
        clipRule="evenodd"
        d="M22.005 1.43a.5.5 0 01.566-.425c1.365.195 3.998 1.587 4.426 5.44a.5.5 0 01-.994.11c-.372-3.347-2.606-4.422-3.574-4.56a.5.5 0 01-.424-.566zM4 19a.5.5 0 01.5.5c0 .959.77 3.396 4.158 4.526a.5.5 0 11-.316.948C4.53 23.704 3.5 20.874 3.5 19.5A.5.5 0 014 19zm-2 1a.5.5 0 01.5.5c0 .752.23 1.926.915 2.946.672 1 1.792 1.872 3.635 2.056a.5.5 0 01-.1.995c-2.157-.215-3.537-1.26-4.365-2.493A6.557 6.557 0 011.5 20.5.5.5 0 012 20z"
        fill="#296DFF"
      />
    </g>
    <defs>
      <clipPath id="clip0_112_10969">
        <path fill="#fff" d="M0 0h32v32H0z" />
      </clipPath>
    </defs>
  </svg>

